<svg t="1748021111049" class="icon" viewBox="0 0 1024 1024" version="1.1" xmlns="http://www.w3.org/2000/svg" p-id="14967" width="200" height="200"><path d="M512 0a512 512 0 1 0 512 512 512 512 0 0 0-512-512z m0 979.2A467.2 467.2 0 1 1 979.2 512 467.2 467.2 0 0 1 512 979.2z" fill="#2773FF" p-id="14968"></path><path d="M307.136 319.936h409.6a49.92 49.92 0 0 1 51.2 47.424l-256 134.4-256-133.952a49.664 49.664 0 0 1 51.2-47.872z m-51.2 98.88v237.12a49.792 49.792 0 0 0 51.2 48h409.6a49.792 49.792 0 0 0 51.2-48V418.688l-249.6 128a13.376 13.376 0 0 1-12.224 0z" fill="#2773FF" p-id="14969"></path></svg>