<svg t="1749109281116" class="icon" viewBox="0 0 1024 1024" version="1.1" xmlns="http://www.w3.org/2000/svg" p-id="5432" width="200" height="200"><path d="M897.997 305.971L773.12 375.757v-65.895c0-84.838-68.762-153.6-153.6-153.6H190.26c-84.84 0-153.6 68.762-153.6 153.6v413.799c0 84.838 68.76 153.6 153.6 153.6h429.26c84.838 0 153.6-68.762 153.6-153.6v-60.775l124.928 69.786c40.346 22.528 90.829-5.632 90.829-50.74V356.71c-0.051-45.056-43.213-77.26-90.88-50.739z" fill="#8C7BFD" p-id="5433"></path><path d="M347.34 699.955c-17.97 0-35.993-4.71-52.377-14.182-32.819-18.944-52.377-52.839-52.377-90.727v-151.45c0-37.887 19.558-71.782 52.377-90.726 32.82-18.944 71.936-18.944 104.755 0l131.175 75.725c32.768 18.944 52.377 52.839 52.377 90.727 0 37.888-19.558 71.782-52.377 90.726l-131.175 75.725c-16.384 9.472-34.355 14.182-52.377 14.182z m5.326-247.193v133.12l115.302-66.56-115.302-66.56z m123.238 71.168z" fill="#FFE37B" p-id="5434"></path></svg>