<svg t="1749182417337" class="icon" viewBox="0 0 1024 1024" version="1.1" xmlns="http://www.w3.org/2000/svg" p-id="1701" width="200" height="200"><path d="M191.335313 658.521308m101.823376-101.823376l292.035101-292.035101q101.823376-101.823376 203.646753 0l26.926626 26.926626q101.823376 101.823376 0 203.646753l-292.035101 292.035101q-101.823376 101.823376-203.646753 0l-26.926626-26.926626q-101.823376-101.823376 0-203.646753Z" fill="#56E1FF" p-id="1702"></path><path d="M398.56 827.85c-63.42 0-123.05-24.7-167.9-69.54-44.85-44.85-69.54-104.47-69.54-167.9 0-63.42 24.7-123.05 69.54-167.9l219.87-219.87 31.82 31.82-219.87 219.87c-75.03 75.03-75.03 197.12 0 272.15 75.03 75.03 197.12 75.03 272.15 0l252.15-252.15c47.92-47.92 47.92-125.89 0-173.81s-125.89-47.92-173.81 0L399.2 514.29l-31.82-31.82L581.15 268.7c65.47-65.47 171.99-65.47 237.45 0 31.71 31.71 49.18 73.88 49.18 118.73s-17.47 87.01-49.18 118.73L566.45 758.31c-44.85 44.85-104.47 69.54-167.9 69.54z" fill="#331E17" p-id="1703"></path><path d="M399.98 687.31c-25.19 0-50.38-9.59-69.56-28.77-38.35-38.35-38.35-100.76 0-139.12l15.91-15.91 31.82 31.82-15.91 15.91c-20.81 20.81-20.81 54.67 0 75.48s54.67 20.81 75.48 0l52.22-52.22 31.82 31.82-52.22 52.22c-19.18 19.18-44.37 28.77-69.56 28.77zM526.369 537.176l123.963-123.963 31.82 31.82-123.964 123.963z" fill="#FFFFFF" p-id="1704"></path></svg>