<svg t="1749182385896" class="icon" viewBox="0 0 1024 1024" version="1.1" xmlns="http://www.w3.org/2000/svg" p-id="1363" width="200" height="200"><path d="M668.51 210.69H160v336.24l86.38-29.96h39.33V318.34l382.8-3.14" fill="#FED746" p-id="1364"></path><path d="M872 798.05l-128.16-48.14h-388V372.39H872v425.66z" fill="#59E47F" p-id="1365"></path><path d="M487 475h254.5v45H487zM487 599h185.11v45H487z" fill="#FFFFFF" p-id="1366"></path><path d="M894.5 834.54l-154.75-58.13H333.34V353.9H894.5v480.65zM378.34 731.41h369.58l101.57 38.16V398.9H378.33v332.51z" fill="#331E17" p-id="1367"></path><path d="M116.5 602.55V212.19h553.51V315.7h-45v-58.51H161.5v282.12l60.09-20.84h65.62v45h-58.04L116.5 602.55z" fill="#331E17" p-id="1368"></path></svg>