<svg t="1749182320455" class="icon" viewBox="0 0 1024 1024" version="1.1" xmlns="http://www.w3.org/2000/svg" p-id="1027" width="200" height="200"><path d="M826 682.6V348.9L537 182.04 248 348.9v333.7l289 166.86L826 682.6z" fill="#FED746" p-id="1028"></path><path d="M514.75 875.44L203.25 695.6V335.91l311.5-179.85 311.5 179.85V695.6l-311.5 179.84z m-266.5-205.83l266.5 153.86 266.5-153.86V361.88l-266.5-153.86-266.5 153.86v307.73z m555.5 12.99h0.01-0.01z" fill="#331E17" p-id="1029"></path><path d="M514.75 649c-73.47 0-133.25-59.78-133.25-133.25S441.28 382.5 514.75 382.5 648 442.28 648 515.75 588.22 649 514.75 649z m0-221.5c-48.66 0-88.25 39.59-88.25 88.25S466.09 604 514.75 604 603 564.41 603 515.75s-39.59-88.25-88.25-88.25z" fill="#FFFFFF" p-id="1030"></path></svg>